# xmcd CD database file
#
# Track frame offsets:
#	150
#	12349
#	23215
#	42852
#	55641
#	65982
#	79996
#	91345
#	103493
#	117911
#	130247
#	142709
#	156374
#	169626
#	183151
#	198333
#	214937
#	225522
#	239820
#	249665
#	262656
#	277816
#	290684
#	304283
#	315929
#
# Disc length: 4476 seconds
#
# Revision: 0
# Processed by: cddbd v1.5.2PL0 Copyright (c) Steve Scherf et al.
# Submitted via: CDex 1.96
#
DISCID=62117a19
DTITLE=The Rat Pack - The Ultimate Rat Back Collection CD2 One More for the Road
DYEAR=2011
DGENRE=Jazz
TTITLE0=High Hopes (Frank Sinatra)
TTITLE1=Ain`t That A Kick In The Head (Dean Martin)
TTITLE2=The Lady Is A Tramp (Sammy Davis Jr.)
TTITLE3=Young At Heart (Frank Sinatra)
TTITLE4=Mambo Italiano (Dean Martin)
TTITLE5=My Funny Valentine (Sammy Davis Jr.)
TTITLE6=Lean Baby (Frank Sinatra)
TTITLE7=Sway (Dean Martin)
TTITLE8=New York`s My Home (Sammy Davis Jr.)
TTITLE9=How About You? (Frank Sinatra)
TTITLE10=Under The Bridges Of Paris (Dean Martin)
TTITLE11=I`ll Know (Sammy Davis Jr.)
TTITLE12=(Love Is) The Tender Trap (Frank Sinatra)
TTITLE13=Let Me Go, Lover (Dean Martin)
TTITLE14=Someone To Watch Over Me (Sammy Davis Jr.)
TTITLE15=I`ve Got You Under My Skin (Frank Sinatra)
TTITLE16=Buona Sera (Dean Martin)
TTITLE17=Earthbound (Sammy Davis Jr.)
TTITLE18=Chicago (Frank Sinatra)
TTITLE19=In Napoli (Dean Martin)
TTITLE20=But Not For Me (Sammy Davis Jr.)
TTITLE21=All The Way (Frank Sinatra)
TTITLE22=When You`re Smiling (Dean Martin)
TTITLE23=Gypsy In My Soul (Sammy Davis Jr.)
TTITLE24=One For My Baby (And One More For The Road) (Frank Sinatra)
EXTD=YEAR: 2011
EXTT0=
EXTT1=
EXTT2=
EXTT3=
EXTT4=
EXTT5=
EXTT6=
EXTT7=
EXTT8=
EXTT9=
EXTT10=
EXTT11=
EXTT12=
EXTT13=
EXTT14=
EXTT15=
EXTT16=
EXTT17=
EXTT18=
EXTT19=
EXTT20=
EXTT21=
EXTT22=
EXTT23=
EXTT24=
PLAYORDER=
